<svg xmlns="http://www.w3.org/2000/svg" xmlns:xlink="http://www.w3.org/1999/xlink" viewBox="0 0 724 436" role="img" aria-label="console2svg output">
<style>.crt{font-family:ui-monospace,"Cascadia Mono","Segoe UI Mono","SFMono-Regular",Menlo,monospace;font-size:14px;}text{dominant-baseline:alphabetic;}</style>
<rect width="724" height="436" fill="#1e1e1e"/>
<g transform="translate(2 2)">
<rect width="720" height="432" fill="#1e1e1e"/>
<text class="crt" x="0" y="32" fill="#d4d4d4">U</text>
<text class="crt" x="9" y="32" fill="#d4d4d4">s</text>
<text class="crt" x="18" y="32" fill="#d4d4d4">a</text>
<text class="crt" x="27" y="32" fill="#d4d4d4">g</text>
<text class="crt" x="36" y="32" fill="#d4d4d4">e</text>
<text class="crt" x="45" y="32" fill="#d4d4d4">:</text>
<text class="crt" x="63" y="32" fill="#d4d4d4">d</text>
<text class="crt" x="72" y="32" fill="#d4d4d4">o</text>
<text class="crt" x="81" y="32" fill="#d4d4d4">t</text>
<text class="crt" x="90" y="32" fill="#d4d4d4">n</text>
<text class="crt" x="99" y="32" fill="#d4d4d4">e</text>
<text class="crt" x="108" y="32" fill="#d4d4d4">t</text>
<text class="crt" x="126" y="32" fill="#d4d4d4">[</text>
<text class="crt" x="135" y="32" fill="#d4d4d4">p</text>
<text class="crt" x="144" y="32" fill="#d4d4d4">a</text>
<text class="crt" x="153" y="32" fill="#d4d4d4">t</text>
<text class="crt" x="162" y="32" fill="#d4d4d4">h</text>
<text class="crt" x="171" y="32" fill="#d4d4d4">-</text>
<text class="crt" x="180" y="32" fill="#d4d4d4">t</text>
<text class="crt" x="189" y="32" fill="#d4d4d4">o</text>
<text class="crt" x="198" y="32" fill="#d4d4d4">-</text>
<text class="crt" x="207" y="32" fill="#d4d4d4">a</text>
<text class="crt" x="216" y="32" fill="#d4d4d4">p</text>
<text class="crt" x="225" y="32" fill="#d4d4d4">p</text>
<text class="crt" x="234" y="32" fill="#d4d4d4">l</text>
<text class="crt" x="243" y="32" fill="#d4d4d4">i</text>
<text class="crt" x="252" y="32" fill="#d4d4d4">c</text>
<text class="crt" x="261" y="32" fill="#d4d4d4">a</text>
<text class="crt" x="270" y="32" fill="#d4d4d4">t</text>
<text class="crt" x="279" y="32" fill="#d4d4d4">i</text>
<text class="crt" x="288" y="32" fill="#d4d4d4">o</text>
<text class="crt" x="297" y="32" fill="#d4d4d4">n</text>
<text class="crt" x="306" y="32" fill="#d4d4d4">]</text>
<text class="crt" x="0" y="50" fill="#d4d4d4">U</text>
<text class="crt" x="9" y="50" fill="#d4d4d4">s</text>
<text class="crt" x="18" y="50" fill="#d4d4d4">a</text>
<text class="crt" x="27" y="50" fill="#d4d4d4">g</text>
<text class="crt" x="36" y="50" fill="#d4d4d4">e</text>
<text class="crt" x="45" y="50" fill="#d4d4d4">:</text>
<text class="crt" x="63" y="50" fill="#d4d4d4">d</text>
<text class="crt" x="72" y="50" fill="#d4d4d4">o</text>
<text class="crt" x="81" y="50" fill="#d4d4d4">t</text>
<text class="crt" x="90" y="50" fill="#d4d4d4">n</text>
<text class="crt" x="99" y="50" fill="#d4d4d4">e</text>
<text class="crt" x="108" y="50" fill="#d4d4d4">t</text>
<text class="crt" x="126" y="50" fill="#d4d4d4">[</text>
<text class="crt" x="135" y="50" fill="#d4d4d4">c</text>
<text class="crt" x="144" y="50" fill="#d4d4d4">o</text>
<text class="crt" x="153" y="50" fill="#d4d4d4">m</text>
<text class="crt" x="162" y="50" fill="#d4d4d4">m</text>
<text class="crt" x="171" y="50" fill="#d4d4d4">a</text>
<text class="crt" x="180" y="50" fill="#d4d4d4">n</text>
<text class="crt" x="189" y="50" fill="#d4d4d4">d</text>
<text class="crt" x="198" y="50" fill="#d4d4d4">s</text>
<text class="crt" x="207" y="50" fill="#d4d4d4">]</text>
<text class="crt" x="0" y="86" fill="#d4d4d4">p</text>
<text class="crt" x="9" y="86" fill="#d4d4d4">a</text>
<text class="crt" x="18" y="86" fill="#d4d4d4">t</text>
<text class="crt" x="27" y="86" fill="#d4d4d4">h</text>
<text class="crt" x="36" y="86" fill="#d4d4d4">-</text>
<text class="crt" x="45" y="86" fill="#d4d4d4">t</text>
<text class="crt" x="54" y="86" fill="#d4d4d4">o</text>
<text class="crt" x="63" y="86" fill="#d4d4d4">-</text>
<text class="crt" x="72" y="86" fill="#d4d4d4">a</text>
<text class="crt" x="81" y="86" fill="#d4d4d4">p</text>
<text class="crt" x="90" y="86" fill="#d4d4d4">p</text>
<text class="crt" x="99" y="86" fill="#d4d4d4">l</text>
<text class="crt" x="108" y="86" fill="#d4d4d4">i</text>
<text class="crt" x="117" y="86" fill="#d4d4d4">c</text>
<text class="crt" x="126" y="86" fill="#d4d4d4">a</text>
<text class="crt" x="135" y="86" fill="#d4d4d4">t</text>
<text class="crt" x="144" y="86" fill="#d4d4d4">i</text>
<text class="crt" x="153" y="86" fill="#d4d4d4">o</text>
<text class="crt" x="162" y="86" fill="#d4d4d4">n</text>
<text class="crt" x="171" y="86" fill="#d4d4d4">:</text>
<text class="crt" x="18" y="104" fill="#d4d4d4">T</text>
<text class="crt" x="27" y="104" fill="#d4d4d4">h</text>
<text class="crt" x="36" y="104" fill="#d4d4d4">e</text>
<text class="crt" x="54" y="104" fill="#d4d4d4">p</text>
<text class="crt" x="63" y="104" fill="#d4d4d4">a</text>
<text class="crt" x="72" y="104" fill="#d4d4d4">t</text>
<text class="crt" x="81" y="104" fill="#d4d4d4">h</text>
<text class="crt" x="99" y="104" fill="#d4d4d4">t</text>
<text class="crt" x="108" y="104" fill="#d4d4d4">o</text>
<text class="crt" x="126" y="104" fill="#d4d4d4">a</text>
<text class="crt" x="135" y="104" fill="#d4d4d4">n</text>
<text class="crt" x="153" y="104" fill="#d4d4d4">a</text>
<text class="crt" x="162" y="104" fill="#d4d4d4">p</text>
<text class="crt" x="171" y="104" fill="#d4d4d4">p</text>
<text class="crt" x="180" y="104" fill="#d4d4d4">l</text>
<text class="crt" x="189" y="104" fill="#d4d4d4">i</text>
<text class="crt" x="198" y="104" fill="#d4d4d4">c</text>
<text class="crt" x="207" y="104" fill="#d4d4d4">a</text>
<text class="crt" x="216" y="104" fill="#d4d4d4">t</text>
<text class="crt" x="225" y="104" fill="#d4d4d4">i</text>
<text class="crt" x="234" y="104" fill="#d4d4d4">o</text>
<text class="crt" x="243" y="104" fill="#d4d4d4">n</text>
<text class="crt" x="261" y="104" fill="#d4d4d4">.</text>
<text class="crt" x="270" y="104" fill="#d4d4d4">d</text>
<text class="crt" x="279" y="104" fill="#d4d4d4">l</text>
<text class="crt" x="288" y="104" fill="#d4d4d4">l</text>
<text class="crt" x="306" y="104" fill="#d4d4d4">f</text>
<text class="crt" x="315" y="104" fill="#d4d4d4">i</text>
<text class="crt" x="324" y="104" fill="#d4d4d4">l</text>
<text class="crt" x="333" y="104" fill="#d4d4d4">e</text>
<text class="crt" x="351" y="104" fill="#d4d4d4">t</text>
<text class="crt" x="360" y="104" fill="#d4d4d4">o</text>
<text class="crt" x="378" y="104" fill="#d4d4d4">e</text>
<text class="crt" x="387" y="104" fill="#d4d4d4">x</text>
<text class="crt" x="396" y="104" fill="#d4d4d4">e</text>
<text class="crt" x="405" y="104" fill="#d4d4d4">c</text>
<text class="crt" x="414" y="104" fill="#d4d4d4">u</text>
<text class="crt" x="423" y="104" fill="#d4d4d4">t</text>
<text class="crt" x="432" y="104" fill="#d4d4d4">e</text>
<text class="crt" x="441" y="104" fill="#d4d4d4">.</text>
<text class="crt" x="0" y="140" fill="#d4d4d4">c</text>
<text class="crt" x="9" y="140" fill="#d4d4d4">o</text>
<text class="crt" x="18" y="140" fill="#d4d4d4">m</text>
<text class="crt" x="27" y="140" fill="#d4d4d4">m</text>
<text class="crt" x="36" y="140" fill="#d4d4d4">a</text>
<text class="crt" x="45" y="140" fill="#d4d4d4">n</text>
<text class="crt" x="54" y="140" fill="#d4d4d4">d</text>
<text class="crt" x="63" y="140" fill="#d4d4d4">s</text>
<text class="crt" x="72" y="140" fill="#d4d4d4">:</text>
<text class="crt" x="18" y="158" fill="#d4d4d4">-</text>
<text class="crt" x="27" y="158" fill="#d4d4d4">h</text>
<text class="crt" x="36" y="158" fill="#d4d4d4">|</text>
<text class="crt" x="45" y="158" fill="#d4d4d4">-</text>
<text class="crt" x="54" y="158" fill="#d4d4d4">-</text>
<text class="crt" x="63" y="158" fill="#d4d4d4">h</text>
<text class="crt" x="72" y="158" fill="#d4d4d4">e</text>
<text class="crt" x="81" y="158" fill="#d4d4d4">l</text>
<text class="crt" x="90" y="158" fill="#d4d4d4">p</text>
<text class="crt" x="324" y="158" fill="#d4d4d4">D</text>
<text class="crt" x="333" y="158" fill="#d4d4d4">i</text>
<text class="crt" x="342" y="158" fill="#d4d4d4">s</text>
<text class="crt" x="351" y="158" fill="#d4d4d4">p</text>
<text class="crt" x="360" y="158" fill="#d4d4d4">l</text>
<text class="crt" x="369" y="158" fill="#d4d4d4">a</text>
<text class="crt" x="378" y="158" fill="#d4d4d4">y</text>
<text class="crt" x="396" y="158" fill="#d4d4d4">h</text>
<text class="crt" x="405" y="158" fill="#d4d4d4">e</text>
<text class="crt" x="414" y="158" fill="#d4d4d4">l</text>
<text class="crt" x="423" y="158" fill="#d4d4d4">p</text>
<text class="crt" x="432" y="158" fill="#d4d4d4">.</text>
<text class="crt" x="18" y="176" fill="#d4d4d4">-</text>
<text class="crt" x="27" y="176" fill="#d4d4d4">-</text>
<text class="crt" x="36" y="176" fill="#d4d4d4">i</text>
<text class="crt" x="45" y="176" fill="#d4d4d4">n</text>
<text class="crt" x="54" y="176" fill="#d4d4d4">f</text>
<text class="crt" x="63" y="176" fill="#d4d4d4">o</text>
<text class="crt" x="324" y="176" fill="#d4d4d4">D</text>
<text class="crt" x="333" y="176" fill="#d4d4d4">i</text>
<text class="crt" x="342" y="176" fill="#d4d4d4">s</text>
<text class="crt" x="351" y="176" fill="#d4d4d4">p</text>
<text class="crt" x="360" y="176" fill="#d4d4d4">l</text>
<text class="crt" x="369" y="176" fill="#d4d4d4">a</text>
<text class="crt" x="378" y="176" fill="#d4d4d4">y</text>
<text class="crt" x="396" y="176" fill="#d4d4d4">.</text>
<text class="crt" x="405" y="176" fill="#d4d4d4">N</text>
<text class="crt" x="414" y="176" fill="#d4d4d4">E</text>
<text class="crt" x="423" y="176" fill="#d4d4d4">T</text>
<text class="crt" x="441" y="176" fill="#d4d4d4">i</text>
<text class="crt" x="450" y="176" fill="#d4d4d4">n</text>
<text class="crt" x="459" y="176" fill="#d4d4d4">f</text>
<text class="crt" x="468" y="176" fill="#d4d4d4">o</text>
<text class="crt" x="477" y="176" fill="#d4d4d4">r</text>
<text class="crt" x="486" y="176" fill="#d4d4d4">m</text>
<text class="crt" x="495" y="176" fill="#d4d4d4">a</text>
<text class="crt" x="504" y="176" fill="#d4d4d4">t</text>
<text class="crt" x="513" y="176" fill="#d4d4d4">i</text>
<text class="crt" x="522" y="176" fill="#d4d4d4">o</text>
<text class="crt" x="531" y="176" fill="#d4d4d4">n</text>
<text class="crt" x="540" y="176" fill="#d4d4d4">.</text>
<text class="crt" x="18" y="194" fill="#d4d4d4">-</text>
<text class="crt" x="27" y="194" fill="#d4d4d4">-</text>
<text class="crt" x="36" y="194" fill="#d4d4d4">l</text>
<text class="crt" x="45" y="194" fill="#d4d4d4">i</text>
<text class="crt" x="54" y="194" fill="#d4d4d4">s</text>
<text class="crt" x="63" y="194" fill="#d4d4d4">t</text>
<text class="crt" x="72" y="194" fill="#d4d4d4">-</text>
<text class="crt" x="81" y="194" fill="#d4d4d4">r</text>
<text class="crt" x="90" y="194" fill="#d4d4d4">u</text>
<text class="crt" x="99" y="194" fill="#d4d4d4">n</text>
<text class="crt" x="108" y="194" fill="#d4d4d4">t</text>
<text class="crt" x="117" y="194" fill="#d4d4d4">i</text>
<text class="crt" x="126" y="194" fill="#d4d4d4">m</text>
<text class="crt" x="135" y="194" fill="#d4d4d4">e</text>
<text class="crt" x="144" y="194" fill="#d4d4d4">s</text>
<text class="crt" x="162" y="194" fill="#d4d4d4">[</text>
<text class="crt" x="171" y="194" fill="#d4d4d4">-</text>
<text class="crt" x="180" y="194" fill="#d4d4d4">-</text>
<text class="crt" x="189" y="194" fill="#d4d4d4">a</text>
<text class="crt" x="198" y="194" fill="#d4d4d4">r</text>
<text class="crt" x="207" y="194" fill="#d4d4d4">c</text>
<text class="crt" x="216" y="194" fill="#d4d4d4">h</text>
<text class="crt" x="234" y="194" fill="#d4d4d4">&lt;</text>
<text class="crt" x="243" y="194" fill="#d4d4d4">a</text>
<text class="crt" x="252" y="194" fill="#d4d4d4">r</text>
<text class="crt" x="261" y="194" fill="#d4d4d4">c</text>
<text class="crt" x="270" y="194" fill="#d4d4d4">h</text>
<text class="crt" x="279" y="194" fill="#d4d4d4">&gt;</text>
<text class="crt" x="288" y="194" fill="#d4d4d4">]</text>
<text class="crt" x="324" y="194" fill="#d4d4d4">D</text>
<text class="crt" x="333" y="194" fill="#d4d4d4">i</text>
<text class="crt" x="342" y="194" fill="#d4d4d4">s</text>
<text class="crt" x="351" y="194" fill="#d4d4d4">p</text>
<text class="crt" x="360" y="194" fill="#d4d4d4">l</text>
<text class="crt" x="369" y="194" fill="#d4d4d4">a</text>
<text class="crt" x="378" y="194" fill="#d4d4d4">y</text>
<text class="crt" x="396" y="194" fill="#d4d4d4">t</text>
<text class="crt" x="405" y="194" fill="#d4d4d4">h</text>
<text class="crt" x="414" y="194" fill="#d4d4d4">e</text>
<text class="crt" x="432" y="194" fill="#d4d4d4">i</text>
<text class="crt" x="441" y="194" fill="#d4d4d4">n</text>
<text class="crt" x="450" y="194" fill="#d4d4d4">s</text>
<text class="crt" x="459" y="194" fill="#d4d4d4">t</text>
<text class="crt" x="468" y="194" fill="#d4d4d4">a</text>
<text class="crt" x="477" y="194" fill="#d4d4d4">l</text>
<text class="crt" x="486" y="194" fill="#d4d4d4">l</text>
<text class="crt" x="495" y="194" fill="#d4d4d4">e</text>
<text class="crt" x="504" y="194" fill="#d4d4d4">d</text>
<text class="crt" x="522" y="194" fill="#d4d4d4">r</text>
<text class="crt" x="531" y="194" fill="#d4d4d4">u</text>
<text class="crt" x="540" y="194" fill="#d4d4d4">n</text>
<text class="crt" x="549" y="194" fill="#d4d4d4">t</text>
<text class="crt" x="558" y="194" fill="#d4d4d4">i</text>
<text class="crt" x="567" y="194" fill="#d4d4d4">m</text>
<text class="crt" x="576" y="194" fill="#d4d4d4">e</text>
<text class="crt" x="585" y="194" fill="#d4d4d4">s</text>
<text class="crt" x="603" y="194" fill="#d4d4d4">m</text>
<text class="crt" x="612" y="194" fill="#d4d4d4">a</text>
<text class="crt" x="621" y="194" fill="#d4d4d4">t</text>
<text class="crt" x="630" y="194" fill="#d4d4d4">c</text>
<text class="crt" x="639" y="194" fill="#d4d4d4">h</text>
<text class="crt" x="648" y="194" fill="#d4d4d4">i</text>
<text class="crt" x="657" y="194" fill="#d4d4d4">n</text>
<text class="crt" x="666" y="194" fill="#d4d4d4">g</text>
<text class="crt" x="684" y="194" fill="#d4d4d4">t</text>
<text class="crt" x="693" y="194" fill="#d4d4d4">h</text>
<text class="crt" x="702" y="194" fill="#d4d4d4">e</text>
<text class="crt" x="0" y="212" fill="#d4d4d4">h</text>
<text class="crt" x="9" y="212" fill="#d4d4d4">o</text>
<text class="crt" x="18" y="212" fill="#d4d4d4">s</text>
<text class="crt" x="27" y="212" fill="#d4d4d4">t</text>
<text class="crt" x="45" y="212" fill="#d4d4d4">o</text>
<text class="crt" x="54" y="212" fill="#d4d4d4">r</text>
<text class="crt" x="72" y="212" fill="#d4d4d4">s</text>
<text class="crt" x="81" y="212" fill="#d4d4d4">p</text>
<text class="crt" x="90" y="212" fill="#d4d4d4">e</text>
<text class="crt" x="99" y="212" fill="#d4d4d4">c</text>
<text class="crt" x="108" y="212" fill="#d4d4d4">i</text>
<text class="crt" x="117" y="212" fill="#d4d4d4">f</text>
<text class="crt" x="126" y="212" fill="#d4d4d4">i</text>
<text class="crt" x="135" y="212" fill="#d4d4d4">e</text>
<text class="crt" x="144" y="212" fill="#d4d4d4">d</text>
<text class="crt" x="162" y="212" fill="#d4d4d4">a</text>
<text class="crt" x="171" y="212" fill="#d4d4d4">r</text>
<text class="crt" x="180" y="212" fill="#d4d4d4">c</text>
<text class="crt" x="189" y="212" fill="#d4d4d4">h</text>
<text class="crt" x="198" y="212" fill="#d4d4d4">i</text>
<text class="crt" x="207" y="212" fill="#d4d4d4">t</text>
<text class="crt" x="216" y="212" fill="#d4d4d4">e</text>
<text class="crt" x="225" y="212" fill="#d4d4d4">c</text>
<text class="crt" x="234" y="212" fill="#d4d4d4">t</text>
<text class="crt" x="243" y="212" fill="#d4d4d4">u</text>
<text class="crt" x="252" y="212" fill="#d4d4d4">r</text>
<text class="crt" x="261" y="212" fill="#d4d4d4">e</text>
<text class="crt" x="270" y="212" fill="#d4d4d4">.</text>
<text class="crt" x="288" y="212" fill="#d4d4d4">E</text>
<text class="crt" x="297" y="212" fill="#d4d4d4">x</text>
<text class="crt" x="306" y="212" fill="#d4d4d4">a</text>
<text class="crt" x="315" y="212" fill="#d4d4d4">m</text>
<text class="crt" x="324" y="212" fill="#d4d4d4">p</text>
<text class="crt" x="333" y="212" fill="#d4d4d4">l</text>
<text class="crt" x="342" y="212" fill="#d4d4d4">e</text>
<text class="crt" x="360" y="212" fill="#d4d4d4">a</text>
<text class="crt" x="369" y="212" fill="#d4d4d4">r</text>
<text class="crt" x="378" y="212" fill="#d4d4d4">c</text>
<text class="crt" x="387" y="212" fill="#d4d4d4">h</text>
<text class="crt" x="396" y="212" fill="#d4d4d4">i</text>
<text class="crt" x="405" y="212" fill="#d4d4d4">t</text>
<text class="crt" x="414" y="212" fill="#d4d4d4">e</text>
<text class="crt" x="423" y="212" fill="#d4d4d4">c</text>
<text class="crt" x="432" y="212" fill="#d4d4d4">t</text>
<text class="crt" x="441" y="212" fill="#d4d4d4">u</text>
<text class="crt" x="450" y="212" fill="#d4d4d4">r</text>
<text class="crt" x="459" y="212" fill="#d4d4d4">e</text>
<text class="crt" x="468" y="212" fill="#d4d4d4">s</text>
<text class="crt" x="477" y="212" fill="#d4d4d4">:</text>
<text class="crt" x="495" y="212" fill="#d4d4d4">a</text>
<text class="crt" x="504" y="212" fill="#d4d4d4">r</text>
<text class="crt" x="513" y="212" fill="#d4d4d4">m</text>
<text class="crt" x="522" y="212" fill="#d4d4d4">6</text>
<text class="crt" x="531" y="212" fill="#d4d4d4">4</text>
<text class="crt" x="540" y="212" fill="#d4d4d4">,</text>
<text class="crt" x="558" y="212" fill="#d4d4d4">x</text>
<text class="crt" x="567" y="212" fill="#d4d4d4">6</text>
<text class="crt" x="576" y="212" fill="#d4d4d4">4</text>
<text class="crt" x="585" y="212" fill="#d4d4d4">,</text>
<text class="crt" x="603" y="212" fill="#d4d4d4">x</text>
<text class="crt" x="612" y="212" fill="#d4d4d4">8</text>
<text class="crt" x="621" y="212" fill="#d4d4d4">6</text>
<text class="crt" x="630" y="212" fill="#d4d4d4">.</text>
<text class="crt" x="18" y="230" fill="#d4d4d4">-</text>
<text class="crt" x="27" y="230" fill="#d4d4d4">-</text>
<text class="crt" x="36" y="230" fill="#d4d4d4">l</text>
<text class="crt" x="45" y="230" fill="#d4d4d4">i</text>
<text class="crt" x="54" y="230" fill="#d4d4d4">s</text>
<text class="crt" x="63" y="230" fill="#d4d4d4">t</text>
<text class="crt" x="72" y="230" fill="#d4d4d4">-</text>
<text class="crt" x="81" y="230" fill="#d4d4d4">s</text>
<text class="crt" x="90" y="230" fill="#d4d4d4">d</text>
<text class="crt" x="99" y="230" fill="#d4d4d4">k</text>
<text class="crt" x="108" y="230" fill="#d4d4d4">s</text>
<text class="crt" x="126" y="230" fill="#d4d4d4">[</text>
<text class="crt" x="135" y="230" fill="#d4d4d4">-</text>
<text class="crt" x="144" y="230" fill="#d4d4d4">-</text>
<text class="crt" x="153" y="230" fill="#d4d4d4">a</text>
<text class="crt" x="162" y="230" fill="#d4d4d4">r</text>
<text class="crt" x="171" y="230" fill="#d4d4d4">c</text>
<text class="crt" x="180" y="230" fill="#d4d4d4">h</text>
<text class="crt" x="198" y="230" fill="#d4d4d4">&lt;</text>
<text class="crt" x="207" y="230" fill="#d4d4d4">a</text>
<text class="crt" x="216" y="230" fill="#d4d4d4">r</text>
<text class="crt" x="225" y="230" fill="#d4d4d4">c</text>
<text class="crt" x="234" y="230" fill="#d4d4d4">h</text>
<text class="crt" x="243" y="230" fill="#d4d4d4">&gt;</text>
<text class="crt" x="252" y="230" fill="#d4d4d4">]</text>
<text class="crt" x="324" y="230" fill="#d4d4d4">D</text>
<text class="crt" x="333" y="230" fill="#d4d4d4">i</text>
<text class="crt" x="342" y="230" fill="#d4d4d4">s</text>
<text class="crt" x="351" y="230" fill="#d4d4d4">p</text>
<text class="crt" x="360" y="230" fill="#d4d4d4">l</text>
<text class="crt" x="369" y="230" fill="#d4d4d4">a</text>
<text class="crt" x="378" y="230" fill="#d4d4d4">y</text>
<text class="crt" x="396" y="230" fill="#d4d4d4">t</text>
<text class="crt" x="405" y="230" fill="#d4d4d4">h</text>
<text class="crt" x="414" y="230" fill="#d4d4d4">e</text>
<text class="crt" x="432" y="230" fill="#d4d4d4">i</text>
<text class="crt" x="441" y="230" fill="#d4d4d4">n</text>
<text class="crt" x="450" y="230" fill="#d4d4d4">s</text>
<text class="crt" x="459" y="230" fill="#d4d4d4">t</text>
<text class="crt" x="468" y="230" fill="#d4d4d4">a</text>
<text class="crt" x="477" y="230" fill="#d4d4d4">l</text>
<text class="crt" x="486" y="230" fill="#d4d4d4">l</text>
<text class="crt" x="495" y="230" fill="#d4d4d4">e</text>
<text class="crt" x="504" y="230" fill="#d4d4d4">d</text>
<text class="crt" x="522" y="230" fill="#d4d4d4">S</text>
<text class="crt" x="531" y="230" fill="#d4d4d4">D</text>
<text class="crt" x="540" y="230" fill="#d4d4d4">K</text>
<text class="crt" x="549" y="230" fill="#d4d4d4">s</text>
<text class="crt" x="567" y="230" fill="#d4d4d4">m</text>
<text class="crt" x="576" y="230" fill="#d4d4d4">a</text>
<text class="crt" x="585" y="230" fill="#d4d4d4">t</text>
<text class="crt" x="594" y="230" fill="#d4d4d4">c</text>
<text class="crt" x="603" y="230" fill="#d4d4d4">h</text>
<text class="crt" x="612" y="230" fill="#d4d4d4">i</text>
<text class="crt" x="621" y="230" fill="#d4d4d4">n</text>
<text class="crt" x="630" y="230" fill="#d4d4d4">g</text>
<text class="crt" x="648" y="230" fill="#d4d4d4">t</text>
<text class="crt" x="657" y="230" fill="#d4d4d4">h</text>
<text class="crt" x="666" y="230" fill="#d4d4d4">e</text>
<text class="crt" x="684" y="230" fill="#d4d4d4">h</text>
<text class="crt" x="693" y="230" fill="#d4d4d4">o</text>
<text class="crt" x="702" y="230" fill="#d4d4d4">s</text>
<text class="crt" x="711" y="230" fill="#d4d4d4">t</text>
<text class="crt" x="9" y="248" fill="#d4d4d4">o</text>
<text class="crt" x="18" y="248" fill="#d4d4d4">r</text>
<text class="crt" x="36" y="248" fill="#d4d4d4">s</text>
<text class="crt" x="45" y="248" fill="#d4d4d4">p</text>
<text class="crt" x="54" y="248" fill="#d4d4d4">e</text>
<text class="crt" x="63" y="248" fill="#d4d4d4">c</text>
<text class="crt" x="72" y="248" fill="#d4d4d4">i</text>
<text class="crt" x="81" y="248" fill="#d4d4d4">f</text>
<text class="crt" x="90" y="248" fill="#d4d4d4">i</text>
<text class="crt" x="99" y="248" fill="#d4d4d4">e</text>
<text class="crt" x="108" y="248" fill="#d4d4d4">d</text>
<text class="crt" x="126" y="248" fill="#d4d4d4">a</text>
<text class="crt" x="135" y="248" fill="#d4d4d4">r</text>
<text class="crt" x="144" y="248" fill="#d4d4d4">c</text>
<text class="crt" x="153" y="248" fill="#d4d4d4">h</text>
<text class="crt" x="162" y="248" fill="#d4d4d4">i</text>
<text class="crt" x="171" y="248" fill="#d4d4d4">t</text>
<text class="crt" x="180" y="248" fill="#d4d4d4">e</text>
<text class="crt" x="189" y="248" fill="#d4d4d4">c</text>
<text class="crt" x="198" y="248" fill="#d4d4d4">t</text>
<text class="crt" x="207" y="248" fill="#d4d4d4">u</text>
<text class="crt" x="216" y="248" fill="#d4d4d4">r</text>
<text class="crt" x="225" y="248" fill="#d4d4d4">e</text>
<text class="crt" x="234" y="248" fill="#d4d4d4">.</text>
<text class="crt" x="252" y="248" fill="#d4d4d4">E</text>
<text class="crt" x="261" y="248" fill="#d4d4d4">x</text>
<text class="crt" x="270" y="248" fill="#d4d4d4">a</text>
<text class="crt" x="279" y="248" fill="#d4d4d4">m</text>
<text class="crt" x="288" y="248" fill="#d4d4d4">p</text>
<text class="crt" x="297" y="248" fill="#d4d4d4">l</text>
<text class="crt" x="306" y="248" fill="#d4d4d4">e</text>
<text class="crt" x="324" y="248" fill="#d4d4d4">a</text>
<text class="crt" x="333" y="248" fill="#d4d4d4">r</text>
<text class="crt" x="342" y="248" fill="#d4d4d4">c</text>
<text class="crt" x="351" y="248" fill="#d4d4d4">h</text>
<text class="crt" x="360" y="248" fill="#d4d4d4">i</text>
<text class="crt" x="369" y="248" fill="#d4d4d4">t</text>
<text class="crt" x="378" y="248" fill="#d4d4d4">e</text>
<text class="crt" x="387" y="248" fill="#d4d4d4">c</text>
<text class="crt" x="396" y="248" fill="#d4d4d4">t</text>
<text class="crt" x="405" y="248" fill="#d4d4d4">u</text>
<text class="crt" x="414" y="248" fill="#d4d4d4">r</text>
<text class="crt" x="423" y="248" fill="#d4d4d4">e</text>
<text class="crt" x="432" y="248" fill="#d4d4d4">s</text>
<text class="crt" x="441" y="248" fill="#d4d4d4">:</text>
<text class="crt" x="459" y="248" fill="#d4d4d4">a</text>
<text class="crt" x="468" y="248" fill="#d4d4d4">r</text>
<text class="crt" x="477" y="248" fill="#d4d4d4">m</text>
<text class="crt" x="486" y="248" fill="#d4d4d4">6</text>
<text class="crt" x="495" y="248" fill="#d4d4d4">4</text>
<text class="crt" x="504" y="248" fill="#d4d4d4">,</text>
<text class="crt" x="522" y="248" fill="#d4d4d4">x</text>
<text class="crt" x="531" y="248" fill="#d4d4d4">6</text>
<text class="crt" x="540" y="248" fill="#d4d4d4">4</text>
<text class="crt" x="549" y="248" fill="#d4d4d4">,</text>
<text class="crt" x="567" y="248" fill="#d4d4d4">x</text>
<text class="crt" x="576" y="248" fill="#d4d4d4">8</text>
<text class="crt" x="585" y="248" fill="#d4d4d4">6</text>
<text class="crt" x="594" y="248" fill="#d4d4d4">.</text>
</g>
</svg>