<svg xmlns="http://www.w3.org/2000/svg" xmlns:xlink="http://www.w3.org/1999/xlink" viewBox="0 0 546 105" role="img" aria-label="console2svg output">
<style>.crt{font-family:ui-monospace,"Cascadia Mono","Segoe UI Mono","SFMono-Regular",Menlo,monospace;font-size:14px;}text{dominant-baseline:alphabetic;}</style>
<rect x="0.5" y="0.5" rx="10" ry="10" width="545" height="104" fill="#1f1f1f" stroke="#3a3a3a"/>
<rect x="1" y="1" rx="9" ry="9" width="544" height="27" fill="#2c2c2c"/>
<circle cx="14" cy="14" r="5" fill="#ff5f57"/>
<circle cx="30" cy="14" r="5" fill="#febc2e"/>
<circle cx="46" cy="14" r="5" fill="#28c840"/>
<rect x="3" y="30" width="540" height="72" fill="#1e1e1e"/>
<g transform="translate(3 30)">
<rect width="540" height="72" fill="#1e1e1e"/>
<text class="crt" x="0" y="14" fill="#d4d4d4">H</text>
<text class="crt" x="9" y="14" fill="#d4d4d4">o</text>
<text class="crt" x="18" y="14" fill="#d4d4d4">s</text>
<text class="crt" x="27" y="14" fill="#d4d4d4">t</text>
<text class="crt" x="36" y="14" fill="#d4d4d4">:</text>
<text class="crt" x="18" y="32" fill="#d4d4d4">V</text>
<text class="crt" x="27" y="32" fill="#d4d4d4">e</text>
<text class="crt" x="36" y="32" fill="#d4d4d4">r</text>
<text class="crt" x="45" y="32" fill="#d4d4d4">s</text>
<text class="crt" x="54" y="32" fill="#d4d4d4">i</text>
<text class="crt" x="63" y="32" fill="#d4d4d4">o</text>
<text class="crt" x="72" y="32" fill="#d4d4d4">n</text>
<text class="crt" x="81" y="32" fill="#d4d4d4">:</text>
<text class="crt" x="144" y="32" fill="#d4d4d4">1</text>
<text class="crt" x="153" y="32" fill="#d4d4d4">0</text>
<text class="crt" x="162" y="32" fill="#d4d4d4">.</text>
<text class="crt" x="171" y="32" fill="#d4d4d4">0</text>
<text class="crt" x="180" y="32" fill="#d4d4d4">.</text>
<text class="crt" x="189" y="32" fill="#d4d4d4">2</text>
<text class="crt" x="18" y="50" fill="#d4d4d4">A</text>
<text class="crt" x="27" y="50" fill="#d4d4d4">r</text>
<text class="crt" x="36" y="50" fill="#d4d4d4">c</text>
<text class="crt" x="45" y="50" fill="#d4d4d4">h</text>
<text class="crt" x="54" y="50" fill="#d4d4d4">i</text>
<text class="crt" x="63" y="50" fill="#d4d4d4">t</text>
<text class="crt" x="72" y="50" fill="#d4d4d4">e</text>
<text class="crt" x="81" y="50" fill="#d4d4d4">c</text>
<text class="crt" x="90" y="50" fill="#d4d4d4">t</text>
<text class="crt" x="99" y="50" fill="#d4d4d4">u</text>
<text class="crt" x="108" y="50" fill="#d4d4d4">r</text>
<text class="crt" x="117" y="50" fill="#d4d4d4">e</text>
<text class="crt" x="126" y="50" fill="#d4d4d4">:</text>
<text class="crt" x="144" y="50" fill="#d4d4d4">x</text>
<text class="crt" x="153" y="50" fill="#d4d4d4">6</text>
<text class="crt" x="162" y="50" fill="#d4d4d4">4</text>
<text class="crt" x="18" y="68" fill="#d4d4d4">C</text>
<text class="crt" x="27" y="68" fill="#d4d4d4">o</text>
<text class="crt" x="36" y="68" fill="#d4d4d4">m</text>
<text class="crt" x="45" y="68" fill="#d4d4d4">m</text>
<text class="crt" x="54" y="68" fill="#d4d4d4">i</text>
<text class="crt" x="63" y="68" fill="#d4d4d4">t</text>
<text class="crt" x="72" y="68" fill="#d4d4d4">:</text>
<text class="crt" x="144" y="68" fill="#d4d4d4">4</text>
<text class="crt" x="153" y="68" fill="#d4d4d4">4</text>
<text class="crt" x="162" y="68" fill="#d4d4d4">5</text>
<text class="crt" x="171" y="68" fill="#d4d4d4">2</text>
<text class="crt" x="180" y="68" fill="#d4d4d4">5</text>
<text class="crt" x="189" y="68" fill="#d4d4d4">0</text>
<text class="crt" x="198" y="68" fill="#d4d4d4">2</text>
<text class="crt" x="207" y="68" fill="#d4d4d4">4</text>
<text class="crt" x="216" y="68" fill="#d4d4d4">5</text>
<text class="crt" x="225" y="68" fill="#d4d4d4">9</text>
</g>
</svg>